<?xml version="1.0" encoding="UTF-8"?>
<svg xmlns="http://www.w3.org/2000/svg" xmlns:xlink="http://www.w3.org/1999/xlink" width="50pt" height="50pt" viewBox="0 0 128 128" version="1.1">
<g id="surface1">
<path style=" stroke:none;fill-rule:nonzero;fill:rgb(91.372549%,11.764706%,38.823529%);fill-opacity:1;" d="M 64 0 C 28.660156 0 0 28.660156 0 64 C 0 99.339844 28.660156 128 64 128 C 99.339844 128 128 99.339844 128 64 C 128 28.660156 99.339844 0 64 0 Z M 45.402344 96.75 L 29.816406 96.75 L 29.816406 49.855469 L 45.402344 49.855469 Z M 37.609375 43.453125 L 37.507812 43.453125 C 32.277344 43.453125 28.894531 39.851562 28.894531 35.351562 C 28.894531 30.75 32.378906 27.25 37.714844 27.25 C 43.046875 27.25 46.328125 30.75 46.429688 35.351562 C 46.429688 39.851562 43.046875 43.453125 37.609375 43.453125 Z M 101.605469 96.75 L 86.019531 96.75 L 86.019531 71.664062 C 86.019531 65.359375 83.765625 61.058594 78.125 61.058594 C 73.820312 61.058594 71.253906 63.960938 70.128906 66.757812 C 69.714844 67.761719 69.613281 69.160156 69.613281 70.5625 L 69.613281 96.75 L 54.027344 96.75 C 54.027344 96.75 54.234375 54.253906 54.027344 49.855469 L 69.613281 49.855469 L 69.613281 56.496094 C 71.6875 53.300781 75.390625 48.757812 83.660156 48.757812 C 93.917969 48.757812 101.605469 55.457031 101.605469 69.859375 Z M 101.605469 96.75 "/>
</g>
</svg>
