<?xml version="1.0" encoding="UTF-8"?>
<svg xmlns="http://www.w3.org/2000/svg" xmlns:xlink="http://www.w3.org/1999/xlink" width="283pt" height="283pt" viewBox="0 0 283 283" version="1.1">
<g id="surface1">
<path style=" stroke:none;fill-rule:nonzero;fill:rgb(0%,0%,0%);fill-opacity:1;" d="M 141.5 0 C 63.363281 0 0 63.363281 0 141.5 C 0 219.636719 63.363281 283 141.5 283 C 219.636719 283 283 219.636719 283 141.5 C 283 63.363281 219.636719 0 141.5 0 Z M 206.105469 110.328125 C 206.167969 111.71875 206.199219 113.117188 206.199219 114.523438 C 206.199219 157.441406 173.53125 206.929688 113.792969 206.933594 C 95.449219 206.933594 78.382812 201.554688 64.007812 192.34375 C 66.550781 192.644531 69.136719 192.792969 71.757812 192.792969 C 86.972656 192.792969 100.976562 187.601562 112.09375 178.890625 C 97.878906 178.625 85.890625 169.234375 81.753906 156.332031 C 83.734375 156.710938 85.769531 156.917969 87.855469 156.917969 C 90.820312 156.917969 93.691406 156.519531 96.421875 155.773438 C 81.5625 152.796875 70.367188 139.664062 70.367188 123.9375 C 70.367188 123.789062 70.367188 123.660156 70.371094 123.523438 C 74.746094 125.957031 79.75 127.421875 85.078125 127.585938 C 76.359375 121.765625 70.625 111.820312 70.625 100.550781 C 70.625 94.601562 72.234375 89.023438 75.023438 84.226562 C 91.042969 103.878906 114.976562 116.800781 141.96875 118.160156 C 141.414062 115.78125 141.125 113.300781 141.125 110.753906 C 141.125 92.824219 155.671875 78.277344 173.609375 78.277344 C 182.949219 78.277344 191.386719 82.226562 197.316406 88.542969 C 204.714844 87.082031 211.664062 84.378906 217.9375 80.65625 C 215.511719 88.238281 210.363281 94.601562 203.65625 98.621094 C 210.226562 97.835938 216.488281 96.09375 222.308594 93.507812 C 217.960938 100.019531 212.449219 105.742188 206.105469 110.328125 Z M 206.105469 110.328125 "/>
</g>
</svg>
