<?xml version="1.0" encoding="UTF-8"?>
<svg xmlns="http://www.w3.org/2000/svg" xmlns:xlink="http://www.w3.org/1999/xlink" width="50pt" height="50pt" viewBox="0 0 384 384" version="1.1">
<g id="surface1">
<path style=" stroke:none;fill-rule:nonzero;fill:rgb(0%,58.823529%,53.333333%);fill-opacity:1;" d="M 192 0 C 85.976562 0 0 85.976562 0 192 C 0 298.023438 85.976562 384 192 384 C 298.023438 384 384 298.023438 384 192 C 384 85.976562 298.023438 0 192 0 Z M 279.664062 149.699219 C 279.75 151.589844 279.792969 153.488281 279.792969 155.394531 C 279.792969 213.628906 235.464844 280.78125 154.402344 280.785156 L 154.40625 280.785156 L 154.402344 280.785156 C 129.515625 280.785156 106.355469 273.488281 86.855469 260.988281 C 90.300781 261.394531 93.8125 261.597656 97.363281 261.597656 C 118.011719 261.597656 137.015625 254.554688 152.101562 242.734375 C 132.808594 242.375 116.542969 229.636719 110.929688 212.125 C 113.617188 212.640625 116.378906 212.921875 119.210938 212.921875 C 123.234375 212.921875 127.128906 212.378906 130.832031 211.367188 C 110.667969 207.332031 95.480469 189.511719 95.480469 168.167969 C 95.480469 167.972656 95.480469 167.792969 95.484375 167.605469 C 101.421875 170.910156 108.214844 172.894531 115.445312 173.117188 C 103.613281 165.222656 95.832031 151.726562 95.832031 136.433594 C 95.832031 128.363281 98.015625 120.796875 101.800781 114.285156 C 123.535156 140.949219 156.011719 158.488281 192.636719 160.332031 C 191.882812 157.101562 191.492188 153.738281 191.492188 150.28125 C 191.492188 125.953125 211.230469 106.214844 235.566406 106.214844 C 248.246094 106.214844 259.691406 111.574219 267.734375 120.140625 C 277.777344 118.160156 287.203125 114.492188 295.71875 109.445312 C 292.425781 119.730469 285.441406 128.363281 276.339844 133.820312 C 285.253906 132.753906 293.75 130.386719 301.644531 126.878906 C 295.75 135.71875 288.269531 143.480469 279.664062 149.699219 Z M 279.664062 149.699219 "/>
</g>
</svg>
